<?xml version="1.0" encoding="UTF-8" standalone="no"?>
<!DOCTYPE svg PUBLIC "-//W3C//DTD SVG 1.1//EN"
 "http://www.w3.org/Graphics/SVG/1.1/DTD/svg11.dtd">
<!-- Generated by graphviz version 2.40.1 (20161225.0304)
 -->
<!-- Title: posts Pages: 1 -->
<svg width="488pt" height="712pt"
 viewBox="0.00 0.00 488.00 712.00" xmlns="http://www.w3.org/2000/svg" xmlns:xlink="http://www.w3.org/1999/xlink">
<g id="graph0" class="graph" transform="scale(1 1) rotate(0) translate(4 708)">
<title>posts</title>
<polygon fill="#ffffff" stroke="transparent" points="-4,4 -4,-708 484,-708 484,4 -4,4"/>
<!-- posts -->
<g id="node1" class="node">
<title>posts</title>
<polygon fill="#efefef" stroke="transparent" points="255,-315.5 255,-350.5 420,-350.5 420,-315.5 255,-315.5"/>
<polygon fill="none" stroke="#000000" points="255,-315.5 255,-350.5 420,-350.5 420,-315.5 255,-315.5"/>
<text text-anchor="start" x="267.3658" y="-328.3" font-family="Arial Bold" font-size="18.00" fill="#000000">posts</text>
<text text-anchor="start" x="310.3804" y="-328.3" font-family="Arial" font-size="14.00" fill="#000000"> </text>
<text text-anchor="start" x="314.271" y="-328.3" font-family="Arial" font-size="14.00" fill="#666666">[BASE TABLE]</text>
<polygon fill="none" stroke="#000000" points="255,-285.5 255,-315.5 420,-315.5 420,-285.5 255,-285.5"/>
<text text-anchor="start" x="262" y="-296.9" font-family="Arial" font-size="14.00" fill="#000000">id </text>
<text text-anchor="start" x="276.7798" y="-296.9" font-family="Arial" font-size="14.00" fill="#666666">[char(26)]</text>
<polygon fill="none" stroke="#000000" points="255,-255.5 255,-285.5 420,-285.5 420,-255.5 255,-255.5"/>
<text text-anchor="start" x="262" y="-266.9" font-family="Arial" font-size="14.00" fill="#000000">title </text>
<text text-anchor="start" x="287.6676" y="-266.9" font-family="Arial" font-size="14.00" fill="#666666">[varchar(64)]</text>
<polygon fill="none" stroke="#000000" points="255,-225.5 255,-255.5 420,-255.5 420,-225.5 255,-225.5"/>
<text text-anchor="start" x="262" y="-236.9" font-family="Arial" font-size="14.00" fill="#000000">thumbnail_url </text>
<text text-anchor="start" x="349.9004" y="-236.9" font-family="Arial" font-size="14.00" fill="#666666">[text]</text>
<polygon fill="none" stroke="#000000" points="255,-195.5 255,-225.5 420,-225.5 420,-195.5 255,-195.5"/>
<text text-anchor="start" x="262" y="-206.9" font-family="Arial" font-size="14.00" fill="#000000">content </text>
<text text-anchor="start" x="311.8022" y="-206.9" font-family="Arial" font-size="14.00" fill="#666666">[longtext]</text>
<polygon fill="none" stroke="#000000" points="255,-165.5 255,-195.5 420,-195.5 420,-165.5 255,-165.5"/>
<text text-anchor="start" x="261.6627" y="-176.9" font-family="Arial" font-size="14.00" fill="#000000">permalink </text>
<text text-anchor="start" x="326.2181" y="-176.9" font-family="Arial" font-size="14.00" fill="#666666">[varchar(256)]</text>
<polygon fill="none" stroke="#000000" points="255,-135.5 255,-165.5 420,-165.5 420,-135.5 255,-135.5"/>
<text text-anchor="start" x="262" y="-146.9" font-family="Arial" font-size="14.00" fill="#000000">is_draft </text>
<text text-anchor="start" x="311.7868" y="-146.9" font-family="Arial" font-size="14.00" fill="#666666">[tinyint(1)]</text>
<polygon fill="none" stroke="#000000" points="255,-105.5 255,-135.5 420,-135.5 420,-105.5 255,-105.5"/>
<text text-anchor="start" x="262" y="-116.9" font-family="Arial" font-size="14.00" fill="#000000">created_at </text>
<text text-anchor="start" x="332.028" y="-116.9" font-family="Arial" font-size="14.00" fill="#666666">[datetime]</text>
<polygon fill="none" stroke="#000000" points="255,-75.5 255,-105.5 420,-105.5 420,-75.5 255,-75.5"/>
<text text-anchor="start" x="262" y="-86.9" font-family="Arial" font-size="14.00" fill="#000000">updated_at </text>
<text text-anchor="start" x="335.9326" y="-86.9" font-family="Arial" font-size="14.00" fill="#666666">[datetime]</text>
<polygon fill="none" stroke="#000000" points="255,-45.5 255,-75.5 420,-75.5 420,-45.5 255,-45.5"/>
<text text-anchor="start" x="262" y="-56.9" font-family="Arial" font-size="14.00" fill="#000000">published_at </text>
<text text-anchor="start" x="345.2552" y="-56.9" font-family="Arial" font-size="14.00" fill="#666666">[datetime]</text>
<polygon fill="none" stroke="#000000" stroke-width="3" points="253,-44.5 253,-352.5 421,-352.5 421,-44.5 253,-44.5"/>
</g>
<!-- posts_tags -->
<g id="node2" class="node">
<title>posts_tags</title>
<polygon fill="#efefef" stroke="transparent" points="239,-625.5 239,-660.5 437,-660.5 437,-625.5 239,-625.5"/>
<polygon fill="none" stroke="#000000" points="239,-625.5 239,-660.5 437,-660.5 437,-625.5 239,-625.5"/>
<text text-anchor="start" x="245.8554" y="-638.3" font-family="Arial Bold" font-size="18.00" fill="#000000">posts_tags</text>
<text text-anchor="start" x="332.8908" y="-638.3" font-family="Arial" font-size="14.00" fill="#000000"> </text>
<text text-anchor="start" x="336.7814" y="-638.3" font-family="Arial" font-size="14.00" fill="#666666">[BASE TABLE]</text>
<polygon fill="none" stroke="#000000" points="239,-595.5 239,-625.5 437,-625.5 437,-595.5 239,-595.5"/>
<text text-anchor="start" x="246" y="-606.9" font-family="Arial" font-size="14.00" fill="#000000">id </text>
<text text-anchor="start" x="260.7798" y="-606.9" font-family="Arial" font-size="14.00" fill="#666666">[char(26)]</text>
<polygon fill="none" stroke="#000000" points="239,-565.5 239,-595.5 437,-595.5 437,-565.5 239,-565.5"/>
<text text-anchor="start" x="246" y="-576.9" font-family="Arial" font-size="14.00" fill="#000000">post_id </text>
<text text-anchor="start" x="295.0182" y="-576.9" font-family="Arial" font-size="14.00" fill="#666666">[char(26)]</text>
<polygon fill="none" stroke="#000000" points="239,-535.5 239,-565.5 437,-565.5 437,-535.5 239,-535.5"/>
<text text-anchor="start" x="246" y="-546.9" font-family="Arial" font-size="14.00" fill="#000000">tag_id </text>
<text text-anchor="start" x="288.0182" y="-546.9" font-family="Arial" font-size="14.00" fill="#666666">[char(26)]</text>
<polygon fill="none" stroke="#000000" points="239,-505.5 239,-535.5 437,-535.5 437,-505.5 239,-505.5"/>
<text text-anchor="start" x="246" y="-516.9" font-family="Arial" font-size="14.00" fill="#000000">created_at </text>
<text text-anchor="start" x="316.028" y="-516.9" font-family="Arial" font-size="14.00" fill="#666666">[datetime]</text>
<polygon fill="none" stroke="#000000" points="239,-475.5 239,-505.5 437,-505.5 437,-475.5 239,-475.5"/>
<text text-anchor="start" x="246" y="-486.9" font-family="Arial" font-size="14.00" fill="#000000">updated_at </text>
<text text-anchor="start" x="319.9326" y="-486.9" font-family="Arial" font-size="14.00" fill="#666666">[datetime]</text>
</g>
<!-- posts_tags&#45;&gt;posts -->
<g id="edge1" class="edge">
<title>posts_tags:post_id&#45;&gt;posts:id</title>
<path fill="none" stroke="#000000" d="M228.7092,-579.5941C176.216,-569.6796 199.7672,-480.8045 239,-433 291.0336,-369.598 367.9664,-460.402 420,-397 447.2087,-363.8467 462.8889,-300.5 420,-300.5"/>
<polygon fill="#000000" stroke="#000000" points="229.0385,-579.623 238.6053,-584.9827 234.0193,-580.0615 239,-580.5 239,-580.5 239,-580.5 234.0193,-580.0615 239.3947,-576.0173 229.0385,-579.623 229.0385,-579.623"/>
<text text-anchor="start" x="7.495" y="-590.5" font-family="Arial" font-size="10.00" fill="#000000">FOREIGN KEY (post_id) REFERENCES posts (id)</text>
</g>
</g>
</svg>
