<?xml version="1.0" encoding="UTF-8" standalone="no"?>
<!DOCTYPE svg PUBLIC "-//W3C//DTD SVG 1.1//EN"
 "http://www.w3.org/Graphics/SVG/1.1/DTD/svg11.dtd">
<!-- Generated by graphviz version 2.40.1 (20161225.0304)
 -->
<!-- Title: posts_tags Pages: 1 -->
<svg width="674pt" height="712pt"
 viewBox="0.00 0.00 674.00 712.00" xmlns="http://www.w3.org/2000/svg" xmlns:xlink="http://www.w3.org/1999/xlink">
<g id="graph0" class="graph" transform="scale(1 1) rotate(0) translate(4 708)">
<title>posts_tags</title>
<polygon fill="#ffffff" stroke="transparent" points="-4,4 -4,-708 670,-708 670,4 -4,4"/>
<!-- posts_tags -->
<g id="node1" class="node">
<title>posts_tags</title>
<polygon fill="#efefef" stroke="transparent" points="239,-622.5 239,-657.5 437,-657.5 437,-622.5 239,-622.5"/>
<polygon fill="none" stroke="#000000" points="239,-622.5 239,-657.5 437,-657.5 437,-622.5 239,-622.5"/>
<text text-anchor="start" x="245.8554" y="-635.3" font-family="Arial Bold" font-size="18.00" fill="#000000">posts_tags</text>
<text text-anchor="start" x="332.8908" y="-635.3" font-family="Arial" font-size="14.00" fill="#000000"> </text>
<text text-anchor="start" x="336.7814" y="-635.3" font-family="Arial" font-size="14.00" fill="#666666">[BASE TABLE]</text>
<polygon fill="none" stroke="#000000" points="239,-592.5 239,-622.5 437,-622.5 437,-592.5 239,-592.5"/>
<text text-anchor="start" x="246" y="-603.9" font-family="Arial" font-size="14.00" fill="#000000">id </text>
<text text-anchor="start" x="260.7798" y="-603.9" font-family="Arial" font-size="14.00" fill="#666666">[char(26)]</text>
<polygon fill="none" stroke="#000000" points="239,-562.5 239,-592.5 437,-592.5 437,-562.5 239,-562.5"/>
<text text-anchor="start" x="246" y="-573.9" font-family="Arial" font-size="14.00" fill="#000000">post_id </text>
<text text-anchor="start" x="295.0182" y="-573.9" font-family="Arial" font-size="14.00" fill="#666666">[char(26)]</text>
<polygon fill="none" stroke="#000000" points="239,-532.5 239,-562.5 437,-562.5 437,-532.5 239,-532.5"/>
<text text-anchor="start" x="246" y="-543.9" font-family="Arial" font-size="14.00" fill="#000000">tag_id </text>
<text text-anchor="start" x="288.0182" y="-543.9" font-family="Arial" font-size="14.00" fill="#666666">[char(26)]</text>
<polygon fill="none" stroke="#000000" points="239,-502.5 239,-532.5 437,-532.5 437,-502.5 239,-502.5"/>
<text text-anchor="start" x="246" y="-513.9" font-family="Arial" font-size="14.00" fill="#000000">created_at </text>
<text text-anchor="start" x="316.028" y="-513.9" font-family="Arial" font-size="14.00" fill="#666666">[datetime]</text>
<polygon fill="none" stroke="#000000" points="239,-472.5 239,-502.5 437,-502.5 437,-472.5 239,-472.5"/>
<text text-anchor="start" x="246" y="-483.9" font-family="Arial" font-size="14.00" fill="#000000">updated_at </text>
<text text-anchor="start" x="319.9326" y="-483.9" font-family="Arial" font-size="14.00" fill="#666666">[datetime]</text>
<polygon fill="none" stroke="#000000" stroke-width="3" points="237.5,-471.5 237.5,-659.5 438.5,-659.5 438.5,-471.5 237.5,-471.5"/>
</g>
<!-- posts -->
<g id="node2" class="node">
<title>posts</title>
<polygon fill="#efefef" stroke="transparent" points="125,-312.5 125,-347.5 290,-347.5 290,-312.5 125,-312.5"/>
<polygon fill="none" stroke="#000000" points="125,-312.5 125,-347.5 290,-347.5 290,-312.5 125,-312.5"/>
<text text-anchor="start" x="137.3658" y="-325.3" font-family="Arial Bold" font-size="18.00" fill="#000000">posts</text>
<text text-anchor="start" x="180.3804" y="-325.3" font-family="Arial" font-size="14.00" fill="#000000"> </text>
<text text-anchor="start" x="184.271" y="-325.3" font-family="Arial" font-size="14.00" fill="#666666">[BASE TABLE]</text>
<polygon fill="none" stroke="#000000" points="125,-282.5 125,-312.5 290,-312.5 290,-282.5 125,-282.5"/>
<text text-anchor="start" x="132" y="-293.9" font-family="Arial" font-size="14.00" fill="#000000">id </text>
<text text-anchor="start" x="146.7798" y="-293.9" font-family="Arial" font-size="14.00" fill="#666666">[char(26)]</text>
<polygon fill="none" stroke="#000000" points="125,-252.5 125,-282.5 290,-282.5 290,-252.5 125,-252.5"/>
<text text-anchor="start" x="132" y="-263.9" font-family="Arial" font-size="14.00" fill="#000000">title </text>
<text text-anchor="start" x="157.6676" y="-263.9" font-family="Arial" font-size="14.00" fill="#666666">[varchar(64)]</text>
<polygon fill="none" stroke="#000000" points="125,-222.5 125,-252.5 290,-252.5 290,-222.5 125,-222.5"/>
<text text-anchor="start" x="132" y="-233.9" font-family="Arial" font-size="14.00" fill="#000000">thumbnail_url </text>
<text text-anchor="start" x="219.9004" y="-233.9" font-family="Arial" font-size="14.00" fill="#666666">[text]</text>
<polygon fill="none" stroke="#000000" points="125,-192.5 125,-222.5 290,-222.5 290,-192.5 125,-192.5"/>
<text text-anchor="start" x="132" y="-203.9" font-family="Arial" font-size="14.00" fill="#000000">content </text>
<text text-anchor="start" x="181.8022" y="-203.9" font-family="Arial" font-size="14.00" fill="#666666">[longtext]</text>
<polygon fill="none" stroke="#000000" points="125,-162.5 125,-192.5 290,-192.5 290,-162.5 125,-162.5"/>
<text text-anchor="start" x="131.6627" y="-173.9" font-family="Arial" font-size="14.00" fill="#000000">permalink </text>
<text text-anchor="start" x="196.2181" y="-173.9" font-family="Arial" font-size="14.00" fill="#666666">[varchar(256)]</text>
<polygon fill="none" stroke="#000000" points="125,-132.5 125,-162.5 290,-162.5 290,-132.5 125,-132.5"/>
<text text-anchor="start" x="132" y="-143.9" font-family="Arial" font-size="14.00" fill="#000000">is_draft </text>
<text text-anchor="start" x="181.7868" y="-143.9" font-family="Arial" font-size="14.00" fill="#666666">[tinyint(1)]</text>
<polygon fill="none" stroke="#000000" points="125,-102.5 125,-132.5 290,-132.5 290,-102.5 125,-102.5"/>
<text text-anchor="start" x="132" y="-113.9" font-family="Arial" font-size="14.00" fill="#000000">created_at </text>
<text text-anchor="start" x="202.028" y="-113.9" font-family="Arial" font-size="14.00" fill="#666666">[datetime]</text>
<polygon fill="none" stroke="#000000" points="125,-72.5 125,-102.5 290,-102.5 290,-72.5 125,-72.5"/>
<text text-anchor="start" x="132" y="-83.9" font-family="Arial" font-size="14.00" fill="#000000">updated_at </text>
<text text-anchor="start" x="205.9326" y="-83.9" font-family="Arial" font-size="14.00" fill="#666666">[datetime]</text>
<polygon fill="none" stroke="#000000" points="125,-42.5 125,-72.5 290,-72.5 290,-42.5 125,-42.5"/>
<text text-anchor="start" x="132" y="-53.9" font-family="Arial" font-size="14.00" fill="#000000">published_at </text>
<text text-anchor="start" x="215.2552" y="-53.9" font-family="Arial" font-size="14.00" fill="#666666">[datetime]</text>
</g>
<!-- posts_tags&#45;&gt;posts -->
<g id="edge1" class="edge">
<title>posts_tags:post_id&#45;&gt;posts:id</title>
<path fill="none" stroke="#000000" d="M228.942,-577.433C-59.01,-573.516 285.8146,-399.0775 290,-391 309.1182,-354.1034 331.5556,-297.5 290,-297.5"/>
<polygon fill="#000000" stroke="#000000" points="229.0002,-577.4333 238.97,-581.9999 234.0001,-577.4667 239,-577.5 239,-577.5 239,-577.5 234.0001,-577.4667 239.03,-573.0001 229.0002,-577.4333 229.0002,-577.4333"/>
<text text-anchor="start" x="7.495" y="-587.5" font-family="Arial" font-size="10.00" fill="#000000">FOREIGN KEY (post_id) REFERENCES posts (id)</text>
</g>
<!-- tags -->
<g id="node3" class="node">
<title>tags</title>
<polygon fill="#efefef" stroke="transparent" points="394,-237.5 394,-272.5 543,-272.5 543,-237.5 394,-237.5"/>
<polygon fill="none" stroke="#000000" points="394,-237.5 394,-272.5 543,-272.5 543,-237.5 394,-237.5"/>
<text text-anchor="start" x="402.8658" y="-250.3" font-family="Arial Bold" font-size="18.00" fill="#000000">tags</text>
<text text-anchor="start" x="436.8804" y="-250.3" font-family="Arial" font-size="14.00" fill="#000000"> </text>
<text text-anchor="start" x="440.771" y="-250.3" font-family="Arial" font-size="14.00" fill="#666666">[BASE TABLE]</text>
<polygon fill="none" stroke="#000000" points="394,-207.5 394,-237.5 543,-237.5 543,-207.5 394,-207.5"/>
<text text-anchor="start" x="401" y="-218.9" font-family="Arial" font-size="14.00" fill="#000000">id </text>
<text text-anchor="start" x="415.7798" y="-218.9" font-family="Arial" font-size="14.00" fill="#666666">[char(26)]</text>
<polygon fill="none" stroke="#000000" points="394,-177.5 394,-207.5 543,-207.5 543,-177.5 394,-177.5"/>
<text text-anchor="start" x="401" y="-188.9" font-family="Arial" font-size="14.00" fill="#000000">name </text>
<text text-anchor="start" x="439.899" y="-188.9" font-family="Arial" font-size="14.00" fill="#666666">[varchar(64)]</text>
<polygon fill="none" stroke="#000000" points="394,-147.5 394,-177.5 543,-177.5 543,-147.5 394,-147.5"/>
<text text-anchor="start" x="401" y="-158.9" font-family="Arial" font-size="14.00" fill="#000000">created_at </text>
<text text-anchor="start" x="471.028" y="-158.9" font-family="Arial" font-size="14.00" fill="#666666">[datetime]</text>
<polygon fill="none" stroke="#000000" points="394,-117.5 394,-147.5 543,-147.5 543,-117.5 394,-117.5"/>
<text text-anchor="start" x="400.8037" y="-128.9" font-family="Arial" font-size="14.00" fill="#000000">updated_at </text>
<text text-anchor="start" x="474.7363" y="-128.9" font-family="Arial" font-size="14.00" fill="#666666">[datetime]</text>
</g>
<!-- posts_tags&#45;&gt;tags -->
<g id="edge2" class="edge">
<title>posts_tags:tag_id&#45;&gt;tags:id</title>
<path fill="none" stroke="#000000" d="M447.1856,-546.8821C566.0312,-531.2056 251.9963,-222.5 394,-222.5"/>
<polygon fill="#000000" stroke="#000000" points="446.9816,-546.8944 436.7275,-543.0083 441.9908,-547.1972 437,-547.5 437,-547.5 437,-547.5 441.9908,-547.1972 437.2725,-551.9917 446.9816,-546.8944 446.9816,-546.8944"/>
<text text-anchor="start" x="444.495" y="-557.5" font-family="Arial" font-size="10.00" fill="#000000">FOREIGN KEY (tag_id) REFERENCES tags (id)</text>
</g>
</g>
</svg>
