<?xml version="1.0" encoding="UTF-8" standalone="no"?>
<!DOCTYPE svg PUBLIC "-//W3C//DTD SVG 1.1//EN"
 "http://www.w3.org/Graphics/SVG/1.1/DTD/svg11.dtd">
<!-- Generated by graphviz version 2.40.1 (20161225.0304)
 -->
<!-- Title: posts Pages: 1 -->
<svg width="450pt" height="712pt"
 viewBox="0.00 0.00 449.50 712.00" xmlns="http://www.w3.org/2000/svg" xmlns:xlink="http://www.w3.org/1999/xlink">
<g id="graph0" class="graph" transform="scale(1 1) rotate(0) translate(4 708)">
<title>posts</title>
<polygon fill="#ffffff" stroke="transparent" points="-4,4 -4,-708 445.5,-708 445.5,4 -4,4"/>
<!-- posts -->
<g id="node1" class="node">
<title>posts</title>
<polygon fill="#efefef" stroke="transparent" points="231,-315.5 231,-350.5 396,-350.5 396,-315.5 231,-315.5"/>
<polygon fill="none" stroke="#000000" points="231,-315.5 231,-350.5 396,-350.5 396,-315.5 231,-315.5"/>
<text text-anchor="start" x="243.3658" y="-328.3" font-family="Arial Bold" font-size="18.00" fill="#000000">posts</text>
<text text-anchor="start" x="286.3804" y="-328.3" font-family="Arial" font-size="14.00" fill="#000000"> </text>
<text text-anchor="start" x="290.271" y="-328.3" font-family="Arial" font-size="14.00" fill="#666666">[BASE TABLE]</text>
<polygon fill="none" stroke="#000000" points="231,-285.5 231,-315.5 396,-315.5 396,-285.5 231,-285.5"/>
<text text-anchor="start" x="238" y="-296.9" font-family="Arial" font-size="14.00" fill="#000000">id </text>
<text text-anchor="start" x="252.7798" y="-296.9" font-family="Arial" font-size="14.00" fill="#666666">[char(26)]</text>
<polygon fill="none" stroke="#000000" points="231,-255.5 231,-285.5 396,-285.5 396,-255.5 231,-255.5"/>
<text text-anchor="start" x="238" y="-266.9" font-family="Arial" font-size="14.00" fill="#000000">title </text>
<text text-anchor="start" x="263.6676" y="-266.9" font-family="Arial" font-size="14.00" fill="#666666">[varchar(64)]</text>
<polygon fill="none" stroke="#000000" points="231,-225.5 231,-255.5 396,-255.5 396,-225.5 231,-225.5"/>
<text text-anchor="start" x="238" y="-236.9" font-family="Arial" font-size="14.00" fill="#000000">thumbnail_url </text>
<text text-anchor="start" x="325.9004" y="-236.9" font-family="Arial" font-size="14.00" fill="#666666">[text]</text>
<polygon fill="none" stroke="#000000" points="231,-195.5 231,-225.5 396,-225.5 396,-195.5 231,-195.5"/>
<text text-anchor="start" x="238" y="-206.9" font-family="Arial" font-size="14.00" fill="#000000">content </text>
<text text-anchor="start" x="287.8022" y="-206.9" font-family="Arial" font-size="14.00" fill="#666666">[longtext]</text>
<polygon fill="none" stroke="#000000" points="231,-165.5 231,-195.5 396,-195.5 396,-165.5 231,-165.5"/>
<text text-anchor="start" x="237.6627" y="-176.9" font-family="Arial" font-size="14.00" fill="#000000">permalink </text>
<text text-anchor="start" x="302.2181" y="-176.9" font-family="Arial" font-size="14.00" fill="#666666">[varchar(256)]</text>
<polygon fill="none" stroke="#000000" points="231,-135.5 231,-165.5 396,-165.5 396,-135.5 231,-135.5"/>
<text text-anchor="start" x="238" y="-146.9" font-family="Arial" font-size="14.00" fill="#000000">is_draft </text>
<text text-anchor="start" x="287.7868" y="-146.9" font-family="Arial" font-size="14.00" fill="#666666">[tinyint(1)]</text>
<polygon fill="none" stroke="#000000" points="231,-105.5 231,-135.5 396,-135.5 396,-105.5 231,-105.5"/>
<text text-anchor="start" x="238" y="-116.9" font-family="Arial" font-size="14.00" fill="#000000">created_at </text>
<text text-anchor="start" x="308.028" y="-116.9" font-family="Arial" font-size="14.00" fill="#666666">[datetime]</text>
<polygon fill="none" stroke="#000000" points="231,-75.5 231,-105.5 396,-105.5 396,-75.5 231,-75.5"/>
<text text-anchor="start" x="238" y="-86.9" font-family="Arial" font-size="14.00" fill="#000000">updated_at </text>
<text text-anchor="start" x="311.9326" y="-86.9" font-family="Arial" font-size="14.00" fill="#666666">[datetime]</text>
<polygon fill="none" stroke="#000000" points="231,-45.5 231,-75.5 396,-75.5 396,-45.5 231,-45.5"/>
<text text-anchor="start" x="238" y="-56.9" font-family="Arial" font-size="14.00" fill="#000000">published_at </text>
<text text-anchor="start" x="321.2552" y="-56.9" font-family="Arial" font-size="14.00" fill="#666666">[datetime]</text>
<polygon fill="none" stroke="#000000" stroke-width="3" points="229,-44.5 229,-352.5 397,-352.5 397,-44.5 229,-44.5"/>
</g>
<!-- tags -->
<g id="node2" class="node">
<title>tags</title>
<polygon fill="#efefef" stroke="transparent" points="239,-625.5 239,-660.5 388,-660.5 388,-625.5 239,-625.5"/>
<polygon fill="none" stroke="#000000" points="239,-625.5 239,-660.5 388,-660.5 388,-625.5 239,-625.5"/>
<text text-anchor="start" x="247.8658" y="-638.3" font-family="Arial Bold" font-size="18.00" fill="#000000">tags</text>
<text text-anchor="start" x="281.8804" y="-638.3" font-family="Arial" font-size="14.00" fill="#000000"> </text>
<text text-anchor="start" x="285.771" y="-638.3" font-family="Arial" font-size="14.00" fill="#666666">[BASE TABLE]</text>
<polygon fill="none" stroke="#000000" points="239,-595.5 239,-625.5 388,-625.5 388,-595.5 239,-595.5"/>
<text text-anchor="start" x="246" y="-606.9" font-family="Arial" font-size="14.00" fill="#000000">id </text>
<text text-anchor="start" x="260.7798" y="-606.9" font-family="Arial" font-size="14.00" fill="#666666">[char(26)]</text>
<polygon fill="none" stroke="#000000" points="239,-565.5 239,-595.5 388,-595.5 388,-565.5 239,-565.5"/>
<text text-anchor="start" x="246" y="-576.9" font-family="Arial" font-size="14.00" fill="#000000">post_id </text>
<text text-anchor="start" x="295.0182" y="-576.9" font-family="Arial" font-size="14.00" fill="#666666">[char(26)]</text>
<polygon fill="none" stroke="#000000" points="239,-535.5 239,-565.5 388,-565.5 388,-535.5 239,-535.5"/>
<text text-anchor="start" x="246" y="-546.9" font-family="Arial" font-size="14.00" fill="#000000">name </text>
<text text-anchor="start" x="284.899" y="-546.9" font-family="Arial" font-size="14.00" fill="#666666">[varchar(64)]</text>
<polygon fill="none" stroke="#000000" points="239,-505.5 239,-535.5 388,-535.5 388,-505.5 239,-505.5"/>
<text text-anchor="start" x="246" y="-516.9" font-family="Arial" font-size="14.00" fill="#000000">created_at </text>
<text text-anchor="start" x="316.028" y="-516.9" font-family="Arial" font-size="14.00" fill="#666666">[datetime]</text>
<polygon fill="none" stroke="#000000" points="239,-475.5 239,-505.5 388,-505.5 388,-475.5 239,-475.5"/>
<text text-anchor="start" x="245.8037" y="-486.9" font-family="Arial" font-size="14.00" fill="#000000">updated_at </text>
<text text-anchor="start" x="319.7363" y="-486.9" font-family="Arial" font-size="14.00" fill="#666666">[datetime]</text>
</g>
<!-- tags&#45;&gt;posts -->
<g id="edge1" class="edge">
<title>tags:post_id&#45;&gt;posts:id</title>
<path fill="none" stroke="#000000" d="M229.2768,-578.0794C176.0875,-550.7124 172.1566,-300.5 231,-300.5"/>
<polygon fill="#000000" stroke="#000000" points="229.2962,-578.0841 237.9129,-584.8667 234.1481,-579.2921 239,-580.5 239,-580.5 239,-580.5 234.1481,-579.2921 240.0871,-576.1333 229.2962,-578.0841 229.2962,-578.0841"/>
<text text-anchor="start" x="7.495" y="-590.5" font-family="Arial" font-size="10.00" fill="#000000">FOREIGN KEY (post_id) REFERENCES posts (id)</text>
</g>
</g>
</svg>
