<?xml version="1.0" encoding="UTF-8" standalone="no"?>
<!DOCTYPE svg PUBLIC "-//W3C//DTD SVG 1.1//EN"
 "http://www.w3.org/Graphics/SVG/1.1/DTD/svg11.dtd">
<!-- Generated by graphviz version 2.40.1 (20161225.0304)
 -->
<!-- Title: blog_local Pages: 1 -->
<svg width="1168pt" height="399pt"
 viewBox="0.00 0.00 1168.00 399.00" xmlns="http://www.w3.org/2000/svg" xmlns:xlink="http://www.w3.org/1999/xlink">
<g id="graph0" class="graph" transform="scale(1 1) rotate(0) translate(4 395)">
<title>blog_local</title>
<polygon fill="#ffffff" stroke="transparent" points="-4,4 -4,-395 1164,-395 1164,4 -4,4"/>
<!-- posts -->
<g id="node1" class="node">
<title>posts</title>
<polygon fill="#efefef" stroke="transparent" points="43.5,-312.5 43.5,-347.5 208.5,-347.5 208.5,-312.5 43.5,-312.5"/>
<polygon fill="none" stroke="#000000" points="43.5,-312.5 43.5,-347.5 208.5,-347.5 208.5,-312.5 43.5,-312.5"/>
<text text-anchor="start" x="55.8658" y="-325.3" font-family="Arial Bold" font-size="18.00" fill="#000000">posts</text>
<text text-anchor="start" x="98.8804" y="-325.3" font-family="Arial" font-size="14.00" fill="#000000"> </text>
<text text-anchor="start" x="102.771" y="-325.3" font-family="Arial" font-size="14.00" fill="#666666">[BASE TABLE]</text>
<polygon fill="none" stroke="#000000" points="43.5,-282.5 43.5,-312.5 208.5,-312.5 208.5,-282.5 43.5,-282.5"/>
<text text-anchor="start" x="50.5" y="-293.9" font-family="Arial" font-size="14.00" fill="#000000">id </text>
<text text-anchor="start" x="65.2798" y="-293.9" font-family="Arial" font-size="14.00" fill="#666666">[char(26)]</text>
<polygon fill="none" stroke="#000000" points="43.5,-252.5 43.5,-282.5 208.5,-282.5 208.5,-252.5 43.5,-252.5"/>
<text text-anchor="start" x="50.5" y="-263.9" font-family="Arial" font-size="14.00" fill="#000000">title </text>
<text text-anchor="start" x="76.1676" y="-263.9" font-family="Arial" font-size="14.00" fill="#666666">[varchar(64)]</text>
<polygon fill="none" stroke="#000000" points="43.5,-222.5 43.5,-252.5 208.5,-252.5 208.5,-222.5 43.5,-222.5"/>
<text text-anchor="start" x="50.5" y="-233.9" font-family="Arial" font-size="14.00" fill="#000000">thumbnail_url </text>
<text text-anchor="start" x="138.4004" y="-233.9" font-family="Arial" font-size="14.00" fill="#666666">[text]</text>
<polygon fill="none" stroke="#000000" points="43.5,-192.5 43.5,-222.5 208.5,-222.5 208.5,-192.5 43.5,-192.5"/>
<text text-anchor="start" x="50.5" y="-203.9" font-family="Arial" font-size="14.00" fill="#000000">content </text>
<text text-anchor="start" x="100.3022" y="-203.9" font-family="Arial" font-size="14.00" fill="#666666">[longtext]</text>
<polygon fill="none" stroke="#000000" points="43.5,-162.5 43.5,-192.5 208.5,-192.5 208.5,-162.5 43.5,-162.5"/>
<text text-anchor="start" x="50.1627" y="-173.9" font-family="Arial" font-size="14.00" fill="#000000">permalink </text>
<text text-anchor="start" x="114.7181" y="-173.9" font-family="Arial" font-size="14.00" fill="#666666">[varchar(256)]</text>
<polygon fill="none" stroke="#000000" points="43.5,-132.5 43.5,-162.5 208.5,-162.5 208.5,-132.5 43.5,-132.5"/>
<text text-anchor="start" x="50.5" y="-143.9" font-family="Arial" font-size="14.00" fill="#000000">is_draft </text>
<text text-anchor="start" x="100.2868" y="-143.9" font-family="Arial" font-size="14.00" fill="#666666">[tinyint(1)]</text>
<polygon fill="none" stroke="#000000" points="43.5,-102.5 43.5,-132.5 208.5,-132.5 208.5,-102.5 43.5,-102.5"/>
<text text-anchor="start" x="50.5" y="-113.9" font-family="Arial" font-size="14.00" fill="#000000">created_at </text>
<text text-anchor="start" x="120.528" y="-113.9" font-family="Arial" font-size="14.00" fill="#666666">[datetime]</text>
<polygon fill="none" stroke="#000000" points="43.5,-72.5 43.5,-102.5 208.5,-102.5 208.5,-72.5 43.5,-72.5"/>
<text text-anchor="start" x="50.5" y="-83.9" font-family="Arial" font-size="14.00" fill="#000000">updated_at </text>
<text text-anchor="start" x="124.4326" y="-83.9" font-family="Arial" font-size="14.00" fill="#666666">[datetime]</text>
<polygon fill="none" stroke="#000000" points="43.5,-42.5 43.5,-72.5 208.5,-72.5 208.5,-42.5 43.5,-42.5"/>
<text text-anchor="start" x="50.5" y="-53.9" font-family="Arial" font-size="14.00" fill="#000000">published_at </text>
<text text-anchor="start" x="133.7552" y="-53.9" font-family="Arial" font-size="14.00" fill="#666666">[datetime]</text>
</g>
<!-- schema_migrations -->
<g id="node2" class="node">
<title>schema_migrations</title>
<polygon fill="#efefef" stroke="transparent" points="312.5,-207.5 312.5,-242.5 579.5,-242.5 579.5,-207.5 312.5,-207.5"/>
<polygon fill="none" stroke="#000000" points="312.5,-207.5 312.5,-242.5 579.5,-242.5 579.5,-207.5 312.5,-207.5"/>
<text text-anchor="start" x="319.3647" y="-220.3" font-family="Arial Bold" font-size="18.00" fill="#000000">schema_migrations</text>
<text text-anchor="start" x="475.3815" y="-220.3" font-family="Arial" font-size="14.00" fill="#000000"> </text>
<text text-anchor="start" x="479.2721" y="-220.3" font-family="Arial" font-size="14.00" fill="#666666">[BASE TABLE]</text>
<polygon fill="none" stroke="#000000" points="312.5,-177.5 312.5,-207.5 579.5,-207.5 579.5,-177.5 312.5,-177.5"/>
<text text-anchor="start" x="319.5" y="-188.9" font-family="Arial" font-size="14.00" fill="#000000">version </text>
<text text-anchor="start" x="368.5056" y="-188.9" font-family="Arial" font-size="14.00" fill="#666666">[bigint]</text>
<polygon fill="none" stroke="#000000" points="312.5,-147.5 312.5,-177.5 579.5,-177.5 579.5,-147.5 312.5,-147.5"/>
<text text-anchor="start" x="319.5" y="-158.9" font-family="Arial" font-size="14.00" fill="#000000">dirty </text>
<text text-anchor="start" x="349.831" y="-158.9" font-family="Arial" font-size="14.00" fill="#666666">[tinyint(1)]</text>
</g>
<!-- tags -->
<g id="node3" class="node">
<title>tags</title>
<polygon fill="#efefef" stroke="transparent" points="683.5,-237.5 683.5,-272.5 832.5,-272.5 832.5,-237.5 683.5,-237.5"/>
<polygon fill="none" stroke="#000000" points="683.5,-237.5 683.5,-272.5 832.5,-272.5 832.5,-237.5 683.5,-237.5"/>
<text text-anchor="start" x="692.3658" y="-250.3" font-family="Arial Bold" font-size="18.00" fill="#000000">tags</text>
<text text-anchor="start" x="726.3804" y="-250.3" font-family="Arial" font-size="14.00" fill="#000000"> </text>
<text text-anchor="start" x="730.271" y="-250.3" font-family="Arial" font-size="14.00" fill="#666666">[BASE TABLE]</text>
<polygon fill="none" stroke="#000000" points="683.5,-207.5 683.5,-237.5 832.5,-237.5 832.5,-207.5 683.5,-207.5"/>
<text text-anchor="start" x="690.5" y="-218.9" font-family="Arial" font-size="14.00" fill="#000000">id </text>
<text text-anchor="start" x="705.2798" y="-218.9" font-family="Arial" font-size="14.00" fill="#666666">[char(26)]</text>
<polygon fill="none" stroke="#000000" points="683.5,-177.5 683.5,-207.5 832.5,-207.5 832.5,-177.5 683.5,-177.5"/>
<text text-anchor="start" x="690.5" y="-188.9" font-family="Arial" font-size="14.00" fill="#000000">name </text>
<text text-anchor="start" x="729.399" y="-188.9" font-family="Arial" font-size="14.00" fill="#666666">[varchar(64)]</text>
<polygon fill="none" stroke="#000000" points="683.5,-147.5 683.5,-177.5 832.5,-177.5 832.5,-147.5 683.5,-147.5"/>
<text text-anchor="start" x="690.5" y="-158.9" font-family="Arial" font-size="14.00" fill="#000000">created_at </text>
<text text-anchor="start" x="760.528" y="-158.9" font-family="Arial" font-size="14.00" fill="#666666">[datetime]</text>
<polygon fill="none" stroke="#000000" points="683.5,-117.5 683.5,-147.5 832.5,-147.5 832.5,-117.5 683.5,-117.5"/>
<text text-anchor="start" x="690.3037" y="-128.9" font-family="Arial" font-size="14.00" fill="#000000">updated_at </text>
<text text-anchor="start" x="764.2363" y="-128.9" font-family="Arial" font-size="14.00" fill="#666666">[datetime]</text>
</g>
<!-- users -->
<g id="node4" class="node">
<title>users</title>
<polygon fill="#efefef" stroke="transparent" points="936.5,-267.5 936.5,-302.5 1117.5,-302.5 1117.5,-267.5 936.5,-267.5"/>
<polygon fill="none" stroke="#000000" points="936.5,-267.5 936.5,-302.5 1117.5,-302.5 1117.5,-267.5 936.5,-267.5"/>
<text text-anchor="start" x="956.3708" y="-280.3" font-family="Arial Bold" font-size="18.00" fill="#000000">users</text>
<text text-anchor="start" x="1000.3754" y="-280.3" font-family="Arial" font-size="14.00" fill="#000000"> </text>
<text text-anchor="start" x="1004.266" y="-280.3" font-family="Arial" font-size="14.00" fill="#666666">[BASE TABLE]</text>
<polygon fill="none" stroke="#000000" points="936.5,-237.5 936.5,-267.5 1117.5,-267.5 1117.5,-237.5 936.5,-237.5"/>
<text text-anchor="start" x="943.5" y="-248.9" font-family="Arial" font-size="14.00" fill="#000000">id </text>
<text text-anchor="start" x="958.2798" y="-248.9" font-family="Arial" font-size="14.00" fill="#666666">[char(26)]</text>
<polygon fill="none" stroke="#000000" points="936.5,-207.5 936.5,-237.5 1117.5,-237.5 1117.5,-207.5 936.5,-207.5"/>
<text text-anchor="start" x="943.5" y="-218.9" font-family="Arial" font-size="14.00" fill="#000000">mail_address </text>
<text text-anchor="start" x="1030.6206" y="-218.9" font-family="Arial" font-size="14.00" fill="#666666">[varchar(64)]</text>
<polygon fill="none" stroke="#000000" points="936.5,-177.5 936.5,-207.5 1117.5,-207.5 1117.5,-177.5 936.5,-177.5"/>
<text text-anchor="start" x="943.5" y="-188.9" font-family="Arial" font-size="14.00" fill="#000000">password </text>
<text text-anchor="start" x="1007.2882" y="-188.9" font-family="Arial" font-size="14.00" fill="#666666">[varchar(255)]</text>
<polygon fill="none" stroke="#000000" points="936.5,-147.5 936.5,-177.5 1117.5,-177.5 1117.5,-147.5 936.5,-147.5"/>
<text text-anchor="start" x="943.5" y="-158.9" font-family="Arial" font-size="14.00" fill="#000000">created_at </text>
<text text-anchor="start" x="1013.528" y="-158.9" font-family="Arial" font-size="14.00" fill="#666666">[datetime]</text>
<polygon fill="none" stroke="#000000" points="936.5,-117.5 936.5,-147.5 1117.5,-147.5 1117.5,-117.5 936.5,-117.5"/>
<text text-anchor="start" x="943.5" y="-128.9" font-family="Arial" font-size="14.00" fill="#000000">updated_at </text>
<text text-anchor="start" x="1017.4326" y="-128.9" font-family="Arial" font-size="14.00" fill="#666666">[datetime]</text>
<polygon fill="none" stroke="#000000" points="936.5,-87.5 936.5,-117.5 1117.5,-117.5 1117.5,-87.5 936.5,-87.5"/>
<text text-anchor="start" x="943.3612" y="-98.9" font-family="Arial" font-size="14.00" fill="#000000">last_loggedin_at </text>
<text text-anchor="start" x="1049.1788" y="-98.9" font-family="Arial" font-size="14.00" fill="#666666">[datetime]</text>
</g>
</g>
</svg>
