<?xml version="1.0" encoding="UTF-8" standalone="no"?>
<!DOCTYPE svg PUBLIC "-//W3C//DTD SVG 1.1//EN"
 "http://www.w3.org/Graphics/SVG/1.1/DTD/svg11.dtd">
<!-- Generated by graphviz version 2.40.1 (20161225.0304)
 -->
<!-- Title: blog&#45;local Pages: 1 -->
<svg width="1095pt" height="706pt"
 viewBox="0.00 0.00 1094.50 706.00" xmlns="http://www.w3.org/2000/svg" xmlns:xlink="http://www.w3.org/1999/xlink">
<g id="graph0" class="graph" transform="scale(1 1) rotate(0) translate(4 702)">
<title>blog&#45;local</title>
<polygon fill="#ffffff" stroke="transparent" points="-4,4 -4,-702 1090.5,-702 1090.5,4 -4,4"/>
<!-- posts -->
<g id="node1" class="node">
<title>posts</title>
<polygon fill="#efefef" stroke="transparent" points="231,-282.5 231,-317.5 396,-317.5 396,-282.5 231,-282.5"/>
<polygon fill="none" stroke="#000000" points="231,-282.5 231,-317.5 396,-317.5 396,-282.5 231,-282.5"/>
<text text-anchor="start" x="243.3658" y="-295.3" font-family="Arial Bold" font-size="18.00" fill="#000000">posts</text>
<text text-anchor="start" x="286.3804" y="-295.3" font-family="Arial" font-size="14.00" fill="#000000"> </text>
<text text-anchor="start" x="290.271" y="-295.3" font-family="Arial" font-size="14.00" fill="#666666">[BASE TABLE]</text>
<polygon fill="none" stroke="#000000" points="231,-252.5 231,-282.5 396,-282.5 396,-252.5 231,-252.5"/>
<text text-anchor="start" x="238" y="-263.9" font-family="Arial" font-size="14.00" fill="#000000">id </text>
<text text-anchor="start" x="252.7798" y="-263.9" font-family="Arial" font-size="14.00" fill="#666666">[char(26)]</text>
<polygon fill="none" stroke="#000000" points="231,-222.5 231,-252.5 396,-252.5 396,-222.5 231,-222.5"/>
<text text-anchor="start" x="238" y="-233.9" font-family="Arial" font-size="14.00" fill="#000000">thumbnail_url </text>
<text text-anchor="start" x="325.9004" y="-233.9" font-family="Arial" font-size="14.00" fill="#666666">[text]</text>
<polygon fill="none" stroke="#000000" points="231,-192.5 231,-222.5 396,-222.5 396,-192.5 231,-192.5"/>
<text text-anchor="start" x="238" y="-203.9" font-family="Arial" font-size="14.00" fill="#000000">content </text>
<text text-anchor="start" x="287.8022" y="-203.9" font-family="Arial" font-size="14.00" fill="#666666">[longtext]</text>
<polygon fill="none" stroke="#000000" points="231,-162.5 231,-192.5 396,-192.5 396,-162.5 231,-162.5"/>
<text text-anchor="start" x="237.6627" y="-173.9" font-family="Arial" font-size="14.00" fill="#000000">permalink </text>
<text text-anchor="start" x="302.2181" y="-173.9" font-family="Arial" font-size="14.00" fill="#666666">[varchar(256)]</text>
<polygon fill="none" stroke="#000000" points="231,-132.5 231,-162.5 396,-162.5 396,-132.5 231,-132.5"/>
<text text-anchor="start" x="238" y="-143.9" font-family="Arial" font-size="14.00" fill="#000000">is_draft </text>
<text text-anchor="start" x="287.7868" y="-143.9" font-family="Arial" font-size="14.00" fill="#666666">[tinyint(1)]</text>
<polygon fill="none" stroke="#000000" points="231,-102.5 231,-132.5 396,-132.5 396,-102.5 231,-102.5"/>
<text text-anchor="start" x="238" y="-113.9" font-family="Arial" font-size="14.00" fill="#000000">created_at </text>
<text text-anchor="start" x="308.028" y="-113.9" font-family="Arial" font-size="14.00" fill="#666666">[datetime]</text>
<polygon fill="none" stroke="#000000" points="231,-72.5 231,-102.5 396,-102.5 396,-72.5 231,-72.5"/>
<text text-anchor="start" x="238" y="-83.9" font-family="Arial" font-size="14.00" fill="#000000">updated_at </text>
<text text-anchor="start" x="311.9326" y="-83.9" font-family="Arial" font-size="14.00" fill="#666666">[datetime]</text>
<polygon fill="none" stroke="#000000" points="231,-42.5 231,-72.5 396,-72.5 396,-42.5 231,-42.5"/>
<text text-anchor="start" x="238" y="-53.9" font-family="Arial" font-size="14.00" fill="#000000">title </text>
<text text-anchor="start" x="263.6676" y="-53.9" font-family="Arial" font-size="14.00" fill="#666666">[varchar(64)]</text>
</g>
<!-- schema_migrations -->
<g id="node2" class="node">
<title>schema_migrations</title>
<polygon fill="#efefef" stroke="transparent" points="492,-559.5 492,-594.5 759,-594.5 759,-559.5 492,-559.5"/>
<polygon fill="none" stroke="#000000" points="492,-559.5 492,-594.5 759,-594.5 759,-559.5 492,-559.5"/>
<text text-anchor="start" x="498.8647" y="-572.3" font-family="Arial Bold" font-size="18.00" fill="#000000">schema_migrations</text>
<text text-anchor="start" x="654.8815" y="-572.3" font-family="Arial" font-size="14.00" fill="#000000"> </text>
<text text-anchor="start" x="658.7721" y="-572.3" font-family="Arial" font-size="14.00" fill="#666666">[BASE TABLE]</text>
<polygon fill="none" stroke="#000000" points="492,-529.5 492,-559.5 759,-559.5 759,-529.5 492,-529.5"/>
<text text-anchor="start" x="499" y="-540.9" font-family="Arial" font-size="14.00" fill="#000000">version </text>
<text text-anchor="start" x="548.0056" y="-540.9" font-family="Arial" font-size="14.00" fill="#666666">[bigint]</text>
<polygon fill="none" stroke="#000000" points="492,-499.5 492,-529.5 759,-529.5 759,-499.5 492,-499.5"/>
<text text-anchor="start" x="499" y="-510.9" font-family="Arial" font-size="14.00" fill="#000000">dirty </text>
<text text-anchor="start" x="529.331" y="-510.9" font-family="Arial" font-size="14.00" fill="#666666">[tinyint(1)]</text>
</g>
<!-- tags -->
<g id="node3" class="node">
<title>tags</title>
<polygon fill="#efefef" stroke="transparent" points="239,-604.5 239,-639.5 388,-639.5 388,-604.5 239,-604.5"/>
<polygon fill="none" stroke="#000000" points="239,-604.5 239,-639.5 388,-639.5 388,-604.5 239,-604.5"/>
<text text-anchor="start" x="247.8658" y="-617.3" font-family="Arial Bold" font-size="18.00" fill="#000000">tags</text>
<text text-anchor="start" x="281.8804" y="-617.3" font-family="Arial" font-size="14.00" fill="#000000"> </text>
<text text-anchor="start" x="285.771" y="-617.3" font-family="Arial" font-size="14.00" fill="#666666">[BASE TABLE]</text>
<polygon fill="none" stroke="#000000" points="239,-574.5 239,-604.5 388,-604.5 388,-574.5 239,-574.5"/>
<text text-anchor="start" x="246" y="-585.9" font-family="Arial" font-size="14.00" fill="#000000">id </text>
<text text-anchor="start" x="260.7798" y="-585.9" font-family="Arial" font-size="14.00" fill="#666666">[char(26)]</text>
<polygon fill="none" stroke="#000000" points="239,-544.5 239,-574.5 388,-574.5 388,-544.5 239,-544.5"/>
<text text-anchor="start" x="246" y="-555.9" font-family="Arial" font-size="14.00" fill="#000000">post_id </text>
<text text-anchor="start" x="295.0182" y="-555.9" font-family="Arial" font-size="14.00" fill="#666666">[char(26)]</text>
<polygon fill="none" stroke="#000000" points="239,-514.5 239,-544.5 388,-544.5 388,-514.5 239,-514.5"/>
<text text-anchor="start" x="246" y="-525.9" font-family="Arial" font-size="14.00" fill="#000000">name </text>
<text text-anchor="start" x="284.899" y="-525.9" font-family="Arial" font-size="14.00" fill="#666666">[varchar(64)]</text>
<polygon fill="none" stroke="#000000" points="239,-484.5 239,-514.5 388,-514.5 388,-484.5 239,-484.5"/>
<text text-anchor="start" x="246" y="-495.9" font-family="Arial" font-size="14.00" fill="#000000">created_at </text>
<text text-anchor="start" x="316.028" y="-495.9" font-family="Arial" font-size="14.00" fill="#666666">[datetime]</text>
<polygon fill="none" stroke="#000000" points="239,-454.5 239,-484.5 388,-484.5 388,-454.5 239,-454.5"/>
<text text-anchor="start" x="245.8037" y="-465.9" font-family="Arial" font-size="14.00" fill="#000000">updated_at </text>
<text text-anchor="start" x="319.7363" y="-465.9" font-family="Arial" font-size="14.00" fill="#666666">[datetime]</text>
</g>
<!-- tags&#45;&gt;posts -->
<g id="edge1" class="edge">
<title>tags:post_id&#45;&gt;posts:id</title>
<path fill="none" stroke="#000000" d="M229.2077,-557.1496C173.4458,-529.5152 169.5099,-267.5 231,-267.5"/>
<polygon fill="#000000" stroke="#000000" points="229.2762,-557.1659 237.9497,-563.8757 234.1381,-558.333 239,-559.5 239,-559.5 239,-559.5 234.1381,-558.333 240.0503,-555.1243 229.2762,-557.1659 229.2762,-557.1659"/>
<text text-anchor="start" x="7.495" y="-569.5" font-family="Arial" font-size="10.00" fill="#000000">FOREIGN KEY (post_id) REFERENCES posts (id)</text>
</g>
<!-- users -->
<g id="node4" class="node">
<title>users</title>
<polygon fill="#efefef" stroke="transparent" points="863,-619.5 863,-654.5 1044,-654.5 1044,-619.5 863,-619.5"/>
<polygon fill="none" stroke="#000000" points="863,-619.5 863,-654.5 1044,-654.5 1044,-619.5 863,-619.5"/>
<text text-anchor="start" x="882.8708" y="-632.3" font-family="Arial Bold" font-size="18.00" fill="#000000">users</text>
<text text-anchor="start" x="926.8754" y="-632.3" font-family="Arial" font-size="14.00" fill="#000000"> </text>
<text text-anchor="start" x="930.766" y="-632.3" font-family="Arial" font-size="14.00" fill="#666666">[BASE TABLE]</text>
<polygon fill="none" stroke="#000000" points="863,-589.5 863,-619.5 1044,-619.5 1044,-589.5 863,-589.5"/>
<text text-anchor="start" x="870" y="-600.9" font-family="Arial" font-size="14.00" fill="#000000">id </text>
<text text-anchor="start" x="884.7798" y="-600.9" font-family="Arial" font-size="14.00" fill="#666666">[char(26)]</text>
<polygon fill="none" stroke="#000000" points="863,-559.5 863,-589.5 1044,-589.5 1044,-559.5 863,-559.5"/>
<text text-anchor="start" x="870" y="-570.9" font-family="Arial" font-size="14.00" fill="#000000">mail_address </text>
<text text-anchor="start" x="957.1206" y="-570.9" font-family="Arial" font-size="14.00" fill="#666666">[varchar(64)]</text>
<polygon fill="none" stroke="#000000" points="863,-529.5 863,-559.5 1044,-559.5 1044,-529.5 863,-529.5"/>
<text text-anchor="start" x="870" y="-540.9" font-family="Arial" font-size="14.00" fill="#000000">password </text>
<text text-anchor="start" x="933.7882" y="-540.9" font-family="Arial" font-size="14.00" fill="#666666">[varchar(255)]</text>
<polygon fill="none" stroke="#000000" points="863,-499.5 863,-529.5 1044,-529.5 1044,-499.5 863,-499.5"/>
<text text-anchor="start" x="870" y="-510.9" font-family="Arial" font-size="14.00" fill="#000000">created_at </text>
<text text-anchor="start" x="940.028" y="-510.9" font-family="Arial" font-size="14.00" fill="#666666">[datetime]</text>
<polygon fill="none" stroke="#000000" points="863,-469.5 863,-499.5 1044,-499.5 1044,-469.5 863,-469.5"/>
<text text-anchor="start" x="870" y="-480.9" font-family="Arial" font-size="14.00" fill="#000000">updated_at </text>
<text text-anchor="start" x="943.9326" y="-480.9" font-family="Arial" font-size="14.00" fill="#666666">[datetime]</text>
<polygon fill="none" stroke="#000000" points="863,-439.5 863,-469.5 1044,-469.5 1044,-439.5 863,-439.5"/>
<text text-anchor="start" x="869.8612" y="-450.9" font-family="Arial" font-size="14.00" fill="#000000">last_loggedin_at </text>
<text text-anchor="start" x="975.6788" y="-450.9" font-family="Arial" font-size="14.00" fill="#666666">[datetime]</text>
</g>
</g>
</svg>
