<?xml version="1.0" encoding="UTF-8" standalone="no"?>
<!DOCTYPE svg PUBLIC "-//W3C//DTD SVG 1.1//EN"
 "http://www.w3.org/Graphics/SVG/1.1/DTD/svg11.dtd">
<!-- Generated by graphviz version 2.40.1 (20161225.0304)
 -->
<!-- Title: blog_local Pages: 1 -->
<svg width="1145pt" height="736pt"
 viewBox="0.00 0.00 1144.50 736.00" xmlns="http://www.w3.org/2000/svg" xmlns:xlink="http://www.w3.org/1999/xlink">
<g id="graph0" class="graph" transform="scale(1 1) rotate(0) translate(4 732)">
<title>blog_local</title>
<polygon fill="#ffffff" stroke="transparent" points="-4,4 -4,-732 1140.5,-732 1140.5,4 -4,4"/>
<!-- posts -->
<g id="node1" class="node">
<title>posts</title>
<polygon fill="#efefef" stroke="transparent" points="125,-312.5 125,-347.5 290,-347.5 290,-312.5 125,-312.5"/>
<polygon fill="none" stroke="#000000" points="125,-312.5 125,-347.5 290,-347.5 290,-312.5 125,-312.5"/>
<text text-anchor="start" x="137.3658" y="-325.3" font-family="Arial Bold" font-size="18.00" fill="#000000">posts</text>
<text text-anchor="start" x="180.3804" y="-325.3" font-family="Arial" font-size="14.00" fill="#000000"> </text>
<text text-anchor="start" x="184.271" y="-325.3" font-family="Arial" font-size="14.00" fill="#666666">[BASE TABLE]</text>
<polygon fill="none" stroke="#000000" points="125,-282.5 125,-312.5 290,-312.5 290,-282.5 125,-282.5"/>
<text text-anchor="start" x="132" y="-293.9" font-family="Arial" font-size="14.00" fill="#000000">id </text>
<text text-anchor="start" x="146.7798" y="-293.9" font-family="Arial" font-size="14.00" fill="#666666">[char(26)]</text>
<polygon fill="none" stroke="#000000" points="125,-252.5 125,-282.5 290,-282.5 290,-252.5 125,-252.5"/>
<text text-anchor="start" x="132" y="-263.9" font-family="Arial" font-size="14.00" fill="#000000">title </text>
<text text-anchor="start" x="157.6676" y="-263.9" font-family="Arial" font-size="14.00" fill="#666666">[varchar(64)]</text>
<polygon fill="none" stroke="#000000" points="125,-222.5 125,-252.5 290,-252.5 290,-222.5 125,-222.5"/>
<text text-anchor="start" x="132" y="-233.9" font-family="Arial" font-size="14.00" fill="#000000">thumbnail_url </text>
<text text-anchor="start" x="219.9004" y="-233.9" font-family="Arial" font-size="14.00" fill="#666666">[text]</text>
<polygon fill="none" stroke="#000000" points="125,-192.5 125,-222.5 290,-222.5 290,-192.5 125,-192.5"/>
<text text-anchor="start" x="132" y="-203.9" font-family="Arial" font-size="14.00" fill="#000000">content </text>
<text text-anchor="start" x="181.8022" y="-203.9" font-family="Arial" font-size="14.00" fill="#666666">[longtext]</text>
<polygon fill="none" stroke="#000000" points="125,-162.5 125,-192.5 290,-192.5 290,-162.5 125,-162.5"/>
<text text-anchor="start" x="131.6627" y="-173.9" font-family="Arial" font-size="14.00" fill="#000000">permalink </text>
<text text-anchor="start" x="196.2181" y="-173.9" font-family="Arial" font-size="14.00" fill="#666666">[varchar(256)]</text>
<polygon fill="none" stroke="#000000" points="125,-132.5 125,-162.5 290,-162.5 290,-132.5 125,-132.5"/>
<text text-anchor="start" x="132" y="-143.9" font-family="Arial" font-size="14.00" fill="#000000">is_draft </text>
<text text-anchor="start" x="181.7868" y="-143.9" font-family="Arial" font-size="14.00" fill="#666666">[tinyint(1)]</text>
<polygon fill="none" stroke="#000000" points="125,-102.5 125,-132.5 290,-132.5 290,-102.5 125,-102.5"/>
<text text-anchor="start" x="132" y="-113.9" font-family="Arial" font-size="14.00" fill="#000000">created_at </text>
<text text-anchor="start" x="202.028" y="-113.9" font-family="Arial" font-size="14.00" fill="#666666">[datetime]</text>
<polygon fill="none" stroke="#000000" points="125,-72.5 125,-102.5 290,-102.5 290,-72.5 125,-72.5"/>
<text text-anchor="start" x="132" y="-83.9" font-family="Arial" font-size="14.00" fill="#000000">updated_at </text>
<text text-anchor="start" x="205.9326" y="-83.9" font-family="Arial" font-size="14.00" fill="#666666">[datetime]</text>
<polygon fill="none" stroke="#000000" points="125,-42.5 125,-72.5 290,-72.5 290,-42.5 125,-42.5"/>
<text text-anchor="start" x="132" y="-53.9" font-family="Arial" font-size="14.00" fill="#000000">published_at </text>
<text text-anchor="start" x="215.2552" y="-53.9" font-family="Arial" font-size="14.00" fill="#666666">[datetime]</text>
</g>
<!-- posts_tags -->
<g id="node2" class="node">
<title>posts_tags</title>
<polygon fill="#efefef" stroke="transparent" points="239,-634.5 239,-669.5 437,-669.5 437,-634.5 239,-634.5"/>
<polygon fill="none" stroke="#000000" points="239,-634.5 239,-669.5 437,-669.5 437,-634.5 239,-634.5"/>
<text text-anchor="start" x="245.8554" y="-647.3" font-family="Arial Bold" font-size="18.00" fill="#000000">posts_tags</text>
<text text-anchor="start" x="332.8908" y="-647.3" font-family="Arial" font-size="14.00" fill="#000000"> </text>
<text text-anchor="start" x="336.7814" y="-647.3" font-family="Arial" font-size="14.00" fill="#666666">[BASE TABLE]</text>
<polygon fill="none" stroke="#000000" points="239,-604.5 239,-634.5 437,-634.5 437,-604.5 239,-604.5"/>
<text text-anchor="start" x="246" y="-615.9" font-family="Arial" font-size="14.00" fill="#000000">id </text>
<text text-anchor="start" x="260.7798" y="-615.9" font-family="Arial" font-size="14.00" fill="#666666">[char(26)]</text>
<polygon fill="none" stroke="#000000" points="239,-574.5 239,-604.5 437,-604.5 437,-574.5 239,-574.5"/>
<text text-anchor="start" x="246" y="-585.9" font-family="Arial" font-size="14.00" fill="#000000">post_id </text>
<text text-anchor="start" x="295.0182" y="-585.9" font-family="Arial" font-size="14.00" fill="#666666">[char(26)]</text>
<polygon fill="none" stroke="#000000" points="239,-544.5 239,-574.5 437,-574.5 437,-544.5 239,-544.5"/>
<text text-anchor="start" x="246" y="-555.9" font-family="Arial" font-size="14.00" fill="#000000">tag_id </text>
<text text-anchor="start" x="288.0182" y="-555.9" font-family="Arial" font-size="14.00" fill="#666666">[char(26)]</text>
<polygon fill="none" stroke="#000000" points="239,-514.5 239,-544.5 437,-544.5 437,-514.5 239,-514.5"/>
<text text-anchor="start" x="246" y="-525.9" font-family="Arial" font-size="14.00" fill="#000000">created_at </text>
<text text-anchor="start" x="316.028" y="-525.9" font-family="Arial" font-size="14.00" fill="#666666">[datetime]</text>
<polygon fill="none" stroke="#000000" points="239,-484.5 239,-514.5 437,-514.5 437,-484.5 239,-484.5"/>
<text text-anchor="start" x="246" y="-495.9" font-family="Arial" font-size="14.00" fill="#000000">updated_at </text>
<text text-anchor="start" x="319.9326" y="-495.9" font-family="Arial" font-size="14.00" fill="#666666">[datetime]</text>
</g>
<!-- posts_tags&#45;&gt;posts -->
<g id="edge1" class="edge">
<title>posts_tags:post_id&#45;&gt;posts:id</title>
<path fill="none" stroke="#000000" d="M228.859,-588.6839C177.9794,-579.7365 215.3339,-499.135 239,-442 251.2671,-412.3846 277.7329,-420.6154 290,-391 305.9026,-352.6077 331.5556,-297.5 290,-297.5"/>
<polygon fill="#000000" stroke="#000000" points="229.0322,-588.6977 238.639,-593.9855 234.0161,-589.0989 239,-589.5 239,-589.5 239,-589.5 234.0161,-589.0989 239.361,-585.0145 229.0322,-588.6977 229.0322,-588.6977"/>
<text text-anchor="start" x="7.495" y="-599.5" font-family="Arial" font-size="10.00" fill="#000000">FOREIGN KEY (post_id) REFERENCES posts (id)</text>
</g>
<!-- tags -->
<g id="node4" class="node">
<title>tags</title>
<polygon fill="#efefef" stroke="transparent" points="394,-237.5 394,-272.5 543,-272.5 543,-237.5 394,-237.5"/>
<polygon fill="none" stroke="#000000" points="394,-237.5 394,-272.5 543,-272.5 543,-237.5 394,-237.5"/>
<text text-anchor="start" x="402.8658" y="-250.3" font-family="Arial Bold" font-size="18.00" fill="#000000">tags</text>
<text text-anchor="start" x="436.8804" y="-250.3" font-family="Arial" font-size="14.00" fill="#000000"> </text>
<text text-anchor="start" x="440.771" y="-250.3" font-family="Arial" font-size="14.00" fill="#666666">[BASE TABLE]</text>
<polygon fill="none" stroke="#000000" points="394,-207.5 394,-237.5 543,-237.5 543,-207.5 394,-207.5"/>
<text text-anchor="start" x="401" y="-218.9" font-family="Arial" font-size="14.00" fill="#000000">id </text>
<text text-anchor="start" x="415.7798" y="-218.9" font-family="Arial" font-size="14.00" fill="#666666">[char(26)]</text>
<polygon fill="none" stroke="#000000" points="394,-177.5 394,-207.5 543,-207.5 543,-177.5 394,-177.5"/>
<text text-anchor="start" x="401" y="-188.9" font-family="Arial" font-size="14.00" fill="#000000">name </text>
<text text-anchor="start" x="439.899" y="-188.9" font-family="Arial" font-size="14.00" fill="#666666">[varchar(64)]</text>
<polygon fill="none" stroke="#000000" points="394,-147.5 394,-177.5 543,-177.5 543,-147.5 394,-147.5"/>
<text text-anchor="start" x="401" y="-158.9" font-family="Arial" font-size="14.00" fill="#000000">created_at </text>
<text text-anchor="start" x="471.028" y="-158.9" font-family="Arial" font-size="14.00" fill="#666666">[datetime]</text>
<polygon fill="none" stroke="#000000" points="394,-117.5 394,-147.5 543,-147.5 543,-117.5 394,-117.5"/>
<text text-anchor="start" x="400.8037" y="-128.9" font-family="Arial" font-size="14.00" fill="#000000">updated_at </text>
<text text-anchor="start" x="474.7363" y="-128.9" font-family="Arial" font-size="14.00" fill="#666666">[datetime]</text>
</g>
<!-- posts_tags&#45;&gt;tags -->
<g id="edge2" class="edge">
<title>posts_tags:tag_id&#45;&gt;tags:id</title>
<path fill="none" stroke="#000000" d="M447.1866,-558.9072C571.4428,-543.2458 246.6942,-222.5 394,-222.5"/>
<polygon fill="#000000" stroke="#000000" points="446.9831,-558.919 436.7385,-555.0076 441.9916,-559.2095 437,-559.5 437,-559.5 437,-559.5 441.9916,-559.2095 437.2615,-563.9924 446.9831,-558.919 446.9831,-558.919"/>
<text text-anchor="start" x="329.995" y="-543.5" font-family="Arial" font-size="10.00" fill="#000000">FOREIGN KEY (tag_id) REFERENCES tags (id)</text>
</g>
<!-- schema_migrations -->
<g id="node3" class="node">
<title>schema_migrations</title>
<polygon fill="#efefef" stroke="transparent" points="542,-589.5 542,-624.5 809,-624.5 809,-589.5 542,-589.5"/>
<polygon fill="none" stroke="#000000" points="542,-589.5 542,-624.5 809,-624.5 809,-589.5 542,-589.5"/>
<text text-anchor="start" x="548.8647" y="-602.3" font-family="Arial Bold" font-size="18.00" fill="#000000">schema_migrations</text>
<text text-anchor="start" x="704.8815" y="-602.3" font-family="Arial" font-size="14.00" fill="#000000"> </text>
<text text-anchor="start" x="708.7721" y="-602.3" font-family="Arial" font-size="14.00" fill="#666666">[BASE TABLE]</text>
<polygon fill="none" stroke="#000000" points="542,-559.5 542,-589.5 809,-589.5 809,-559.5 542,-559.5"/>
<text text-anchor="start" x="549" y="-570.9" font-family="Arial" font-size="14.00" fill="#000000">version </text>
<text text-anchor="start" x="598.0056" y="-570.9" font-family="Arial" font-size="14.00" fill="#666666">[bigint]</text>
<polygon fill="none" stroke="#000000" points="542,-529.5 542,-559.5 809,-559.5 809,-529.5 542,-529.5"/>
<text text-anchor="start" x="549" y="-540.9" font-family="Arial" font-size="14.00" fill="#000000">dirty </text>
<text text-anchor="start" x="579.331" y="-540.9" font-family="Arial" font-size="14.00" fill="#666666">[tinyint(1)]</text>
</g>
<!-- users -->
<g id="node5" class="node">
<title>users</title>
<polygon fill="#efefef" stroke="transparent" points="913,-649.5 913,-684.5 1094,-684.5 1094,-649.5 913,-649.5"/>
<polygon fill="none" stroke="#000000" points="913,-649.5 913,-684.5 1094,-684.5 1094,-649.5 913,-649.5"/>
<text text-anchor="start" x="932.8708" y="-662.3" font-family="Arial Bold" font-size="18.00" fill="#000000">users</text>
<text text-anchor="start" x="976.8754" y="-662.3" font-family="Arial" font-size="14.00" fill="#000000"> </text>
<text text-anchor="start" x="980.766" y="-662.3" font-family="Arial" font-size="14.00" fill="#666666">[BASE TABLE]</text>
<polygon fill="none" stroke="#000000" points="913,-619.5 913,-649.5 1094,-649.5 1094,-619.5 913,-619.5"/>
<text text-anchor="start" x="920" y="-630.9" font-family="Arial" font-size="14.00" fill="#000000">id </text>
<text text-anchor="start" x="934.7798" y="-630.9" font-family="Arial" font-size="14.00" fill="#666666">[char(26)]</text>
<polygon fill="none" stroke="#000000" points="913,-589.5 913,-619.5 1094,-619.5 1094,-589.5 913,-589.5"/>
<text text-anchor="start" x="920" y="-600.9" font-family="Arial" font-size="14.00" fill="#000000">mail_address </text>
<text text-anchor="start" x="1007.1206" y="-600.9" font-family="Arial" font-size="14.00" fill="#666666">[varchar(64)]</text>
<polygon fill="none" stroke="#000000" points="913,-559.5 913,-589.5 1094,-589.5 1094,-559.5 913,-559.5"/>
<text text-anchor="start" x="920" y="-570.9" font-family="Arial" font-size="14.00" fill="#000000">password </text>
<text text-anchor="start" x="983.7882" y="-570.9" font-family="Arial" font-size="14.00" fill="#666666">[varchar(255)]</text>
<polygon fill="none" stroke="#000000" points="913,-529.5 913,-559.5 1094,-559.5 1094,-529.5 913,-529.5"/>
<text text-anchor="start" x="920" y="-540.9" font-family="Arial" font-size="14.00" fill="#000000">created_at </text>
<text text-anchor="start" x="990.028" y="-540.9" font-family="Arial" font-size="14.00" fill="#666666">[datetime]</text>
<polygon fill="none" stroke="#000000" points="913,-499.5 913,-529.5 1094,-529.5 1094,-499.5 913,-499.5"/>
<text text-anchor="start" x="920" y="-510.9" font-family="Arial" font-size="14.00" fill="#000000">updated_at </text>
<text text-anchor="start" x="993.9326" y="-510.9" font-family="Arial" font-size="14.00" fill="#666666">[datetime]</text>
<polygon fill="none" stroke="#000000" points="913,-469.5 913,-499.5 1094,-499.5 1094,-469.5 913,-469.5"/>
<text text-anchor="start" x="919.8612" y="-480.9" font-family="Arial" font-size="14.00" fill="#000000">last_loggedin_at </text>
<text text-anchor="start" x="1025.6788" y="-480.9" font-family="Arial" font-size="14.00" fill="#666666">[datetime]</text>
</g>
</g>
</svg>
