<?xml version="1.0" encoding="UTF-8" standalone="no"?>
<!DOCTYPE svg PUBLIC "-//W3C//DTD SVG 1.1//EN"
 "http://www.w3.org/Graphics/SVG/1.1/DTD/svg11.dtd">
<!-- Generated by graphviz version 2.40.1 (20161225.0304)
 -->
<!-- Title: tags Pages: 1 -->
<svg width="478pt" height="562pt"
 viewBox="0.00 0.00 478.00 562.00" xmlns="http://www.w3.org/2000/svg" xmlns:xlink="http://www.w3.org/1999/xlink">
<g id="graph0" class="graph" transform="scale(1 1) rotate(0) translate(4 558)">
<title>tags</title>
<polygon fill="#ffffff" stroke="transparent" points="-4,4 -4,-558 474,-558 474,4 -4,4"/>
<!-- tags -->
<g id="node1" class="node">
<title>tags</title>
<polygon fill="#efefef" stroke="transparent" points="253,-165.5 253,-200.5 402,-200.5 402,-165.5 253,-165.5"/>
<polygon fill="none" stroke="#000000" points="253,-165.5 253,-200.5 402,-200.5 402,-165.5 253,-165.5"/>
<text text-anchor="start" x="261.8658" y="-178.3" font-family="Arial Bold" font-size="18.00" fill="#000000">tags</text>
<text text-anchor="start" x="295.8804" y="-178.3" font-family="Arial" font-size="14.00" fill="#000000"> </text>
<text text-anchor="start" x="299.771" y="-178.3" font-family="Arial" font-size="14.00" fill="#666666">[BASE TABLE]</text>
<polygon fill="none" stroke="#000000" points="253,-135.5 253,-165.5 402,-165.5 402,-135.5 253,-135.5"/>
<text text-anchor="start" x="260" y="-146.9" font-family="Arial" font-size="14.00" fill="#000000">id </text>
<text text-anchor="start" x="274.7798" y="-146.9" font-family="Arial" font-size="14.00" fill="#666666">[char(26)]</text>
<polygon fill="none" stroke="#000000" points="253,-105.5 253,-135.5 402,-135.5 402,-105.5 253,-105.5"/>
<text text-anchor="start" x="260" y="-116.9" font-family="Arial" font-size="14.00" fill="#000000">name </text>
<text text-anchor="start" x="298.899" y="-116.9" font-family="Arial" font-size="14.00" fill="#666666">[varchar(64)]</text>
<polygon fill="none" stroke="#000000" points="253,-75.5 253,-105.5 402,-105.5 402,-75.5 253,-75.5"/>
<text text-anchor="start" x="260" y="-86.9" font-family="Arial" font-size="14.00" fill="#000000">created_at </text>
<text text-anchor="start" x="330.028" y="-86.9" font-family="Arial" font-size="14.00" fill="#666666">[datetime]</text>
<polygon fill="none" stroke="#000000" points="253,-45.5 253,-75.5 402,-75.5 402,-45.5 253,-45.5"/>
<text text-anchor="start" x="259.8037" y="-56.9" font-family="Arial" font-size="14.00" fill="#000000">updated_at </text>
<text text-anchor="start" x="333.7363" y="-56.9" font-family="Arial" font-size="14.00" fill="#666666">[datetime]</text>
<polygon fill="none" stroke="#000000" stroke-width="3" points="251,-44.5 251,-202.5 403,-202.5 403,-44.5 251,-44.5"/>
</g>
<!-- posts_tags -->
<g id="node2" class="node">
<title>posts_tags</title>
<polygon fill="#efefef" stroke="transparent" points="229,-475.5 229,-510.5 427,-510.5 427,-475.5 229,-475.5"/>
<polygon fill="none" stroke="#000000" points="229,-475.5 229,-510.5 427,-510.5 427,-475.5 229,-475.5"/>
<text text-anchor="start" x="235.8554" y="-488.3" font-family="Arial Bold" font-size="18.00" fill="#000000">posts_tags</text>
<text text-anchor="start" x="322.8908" y="-488.3" font-family="Arial" font-size="14.00" fill="#000000"> </text>
<text text-anchor="start" x="326.7814" y="-488.3" font-family="Arial" font-size="14.00" fill="#666666">[BASE TABLE]</text>
<polygon fill="none" stroke="#000000" points="229,-445.5 229,-475.5 427,-475.5 427,-445.5 229,-445.5"/>
<text text-anchor="start" x="236" y="-456.9" font-family="Arial" font-size="14.00" fill="#000000">id </text>
<text text-anchor="start" x="250.7798" y="-456.9" font-family="Arial" font-size="14.00" fill="#666666">[char(26)]</text>
<polygon fill="none" stroke="#000000" points="229,-415.5 229,-445.5 427,-445.5 427,-415.5 229,-415.5"/>
<text text-anchor="start" x="236" y="-426.9" font-family="Arial" font-size="14.00" fill="#000000">post_id </text>
<text text-anchor="start" x="285.0182" y="-426.9" font-family="Arial" font-size="14.00" fill="#666666">[char(26)]</text>
<polygon fill="none" stroke="#000000" points="229,-385.5 229,-415.5 427,-415.5 427,-385.5 229,-385.5"/>
<text text-anchor="start" x="236" y="-396.9" font-family="Arial" font-size="14.00" fill="#000000">tag_id </text>
<text text-anchor="start" x="278.0182" y="-396.9" font-family="Arial" font-size="14.00" fill="#666666">[char(26)]</text>
<polygon fill="none" stroke="#000000" points="229,-355.5 229,-385.5 427,-385.5 427,-355.5 229,-355.5"/>
<text text-anchor="start" x="236" y="-366.9" font-family="Arial" font-size="14.00" fill="#000000">created_at </text>
<text text-anchor="start" x="306.028" y="-366.9" font-family="Arial" font-size="14.00" fill="#666666">[datetime]</text>
<polygon fill="none" stroke="#000000" points="229,-325.5 229,-355.5 427,-355.5 427,-325.5 229,-325.5"/>
<text text-anchor="start" x="236" y="-336.9" font-family="Arial" font-size="14.00" fill="#000000">updated_at </text>
<text text-anchor="start" x="309.9326" y="-336.9" font-family="Arial" font-size="14.00" fill="#666666">[datetime]</text>
</g>
<!-- posts_tags&#45;&gt;tags -->
<g id="edge1" class="edge">
<title>posts_tags:tag_id&#45;&gt;tags:id</title>
<path fill="none" stroke="#000000" d="M219.0246,-399.3976C179.5554,-389.8541 198.3657,-320.6653 229,-283 278.5546,-222.0719 352.4454,-307.9281 402,-247 429.062,-213.7268 444.8889,-150.5 402,-150.5"/>
<polygon fill="#000000" stroke="#000000" points="219.0605,-399.4015 228.5057,-404.9728 224.0303,-399.9507 229,-400.5 229,-400.5 229,-400.5 224.0303,-399.9507 229.4943,-396.0272 219.0605,-399.4015 219.0605,-399.4015"/>
<text text-anchor="start" x="7.495" y="-410.5" font-family="Arial" font-size="10.00" fill="#000000">FOREIGN KEY (tag_id) REFERENCES tags (id)</text>
</g>
</g>
</svg>
