<?xml version="1.0" encoding="UTF-8" standalone="no"?>
<!DOCTYPE svg PUBLIC "-//W3C//DTD SVG 1.1//EN"
 "http://www.w3.org/Graphics/SVG/1.1/DTD/svg11.dtd">
<!-- Generated by graphviz version 2.40.1 (20161225.0304)
 -->
<!-- Title: tags Pages: 1 -->
<svg width="447pt" height="652pt"
 viewBox="0.00 0.00 446.50 652.00" xmlns="http://www.w3.org/2000/svg" xmlns:xlink="http://www.w3.org/1999/xlink">
<g id="graph0" class="graph" transform="scale(1 1) rotate(0) translate(4 648)">
<title>tags</title>
<polygon fill="#ffffff" stroke="transparent" points="-4,4 -4,-648 442.5,-648 442.5,4 -4,4"/>
<!-- tags -->
<g id="node1" class="node">
<title>tags</title>
<polygon fill="#efefef" stroke="transparent" points="239,-562.5 239,-597.5 388,-597.5 388,-562.5 239,-562.5"/>
<polygon fill="none" stroke="#000000" points="239,-562.5 239,-597.5 388,-597.5 388,-562.5 239,-562.5"/>
<text text-anchor="start" x="247.8658" y="-575.3" font-family="Arial Bold" font-size="18.00" fill="#000000">tags</text>
<text text-anchor="start" x="281.8804" y="-575.3" font-family="Arial" font-size="14.00" fill="#000000"> </text>
<text text-anchor="start" x="285.771" y="-575.3" font-family="Arial" font-size="14.00" fill="#666666">[BASE TABLE]</text>
<polygon fill="none" stroke="#000000" points="239,-532.5 239,-562.5 388,-562.5 388,-532.5 239,-532.5"/>
<text text-anchor="start" x="246" y="-543.9" font-family="Arial" font-size="14.00" fill="#000000">id </text>
<text text-anchor="start" x="260.7798" y="-543.9" font-family="Arial" font-size="14.00" fill="#666666">[char(26)]</text>
<polygon fill="none" stroke="#000000" points="239,-502.5 239,-532.5 388,-532.5 388,-502.5 239,-502.5"/>
<text text-anchor="start" x="246" y="-513.9" font-family="Arial" font-size="14.00" fill="#000000">post_id </text>
<text text-anchor="start" x="295.0182" y="-513.9" font-family="Arial" font-size="14.00" fill="#666666">[char(26)]</text>
<polygon fill="none" stroke="#000000" points="239,-472.5 239,-502.5 388,-502.5 388,-472.5 239,-472.5"/>
<text text-anchor="start" x="246" y="-483.9" font-family="Arial" font-size="14.00" fill="#000000">name </text>
<text text-anchor="start" x="284.899" y="-483.9" font-family="Arial" font-size="14.00" fill="#666666">[varchar(64)]</text>
<polygon fill="none" stroke="#000000" points="239,-442.5 239,-472.5 388,-472.5 388,-442.5 239,-442.5"/>
<text text-anchor="start" x="246" y="-453.9" font-family="Arial" font-size="14.00" fill="#000000">created_at </text>
<text text-anchor="start" x="316.028" y="-453.9" font-family="Arial" font-size="14.00" fill="#666666">[datetime]</text>
<polygon fill="none" stroke="#000000" points="239,-412.5 239,-442.5 388,-442.5 388,-412.5 239,-412.5"/>
<text text-anchor="start" x="245.8037" y="-423.9" font-family="Arial" font-size="14.00" fill="#000000">updated_at </text>
<text text-anchor="start" x="319.7363" y="-423.9" font-family="Arial" font-size="14.00" fill="#666666">[datetime]</text>
<polygon fill="none" stroke="#000000" stroke-width="3" points="237,-411.5 237,-599.5 389,-599.5 389,-411.5 237,-411.5"/>
</g>
<!-- posts -->
<g id="node2" class="node">
<title>posts</title>
<polygon fill="#efefef" stroke="transparent" points="231,-252.5 231,-287.5 396,-287.5 396,-252.5 231,-252.5"/>
<polygon fill="none" stroke="#000000" points="231,-252.5 231,-287.5 396,-287.5 396,-252.5 231,-252.5"/>
<text text-anchor="start" x="243.3658" y="-265.3" font-family="Arial Bold" font-size="18.00" fill="#000000">posts</text>
<text text-anchor="start" x="286.3804" y="-265.3" font-family="Arial" font-size="14.00" fill="#000000"> </text>
<text text-anchor="start" x="290.271" y="-265.3" font-family="Arial" font-size="14.00" fill="#666666">[BASE TABLE]</text>
<polygon fill="none" stroke="#000000" points="231,-222.5 231,-252.5 396,-252.5 396,-222.5 231,-222.5"/>
<text text-anchor="start" x="238" y="-233.9" font-family="Arial" font-size="14.00" fill="#000000">id </text>
<text text-anchor="start" x="252.7798" y="-233.9" font-family="Arial" font-size="14.00" fill="#666666">[char(26)]</text>
<polygon fill="none" stroke="#000000" points="231,-192.5 231,-222.5 396,-222.5 396,-192.5 231,-192.5"/>
<text text-anchor="start" x="238" y="-203.9" font-family="Arial" font-size="14.00" fill="#000000">thumnail_url </text>
<text text-anchor="start" x="318.1178" y="-203.9" font-family="Arial" font-size="14.00" fill="#666666">[text]</text>
<polygon fill="none" stroke="#000000" points="231,-162.5 231,-192.5 396,-192.5 396,-162.5 231,-162.5"/>
<text text-anchor="start" x="238" y="-173.9" font-family="Arial" font-size="14.00" fill="#000000">content </text>
<text text-anchor="start" x="287.8022" y="-173.9" font-family="Arial" font-size="14.00" fill="#666666">[longtext]</text>
<polygon fill="none" stroke="#000000" points="231,-132.5 231,-162.5 396,-162.5 396,-132.5 231,-132.5"/>
<text text-anchor="start" x="237.6627" y="-143.9" font-family="Arial" font-size="14.00" fill="#000000">permalink </text>
<text text-anchor="start" x="302.2181" y="-143.9" font-family="Arial" font-size="14.00" fill="#666666">[varchar(256)]</text>
<polygon fill="none" stroke="#000000" points="231,-102.5 231,-132.5 396,-132.5 396,-102.5 231,-102.5"/>
<text text-anchor="start" x="238" y="-113.9" font-family="Arial" font-size="14.00" fill="#000000">is_draft </text>
<text text-anchor="start" x="287.7868" y="-113.9" font-family="Arial" font-size="14.00" fill="#666666">[tinyint(1)]</text>
<polygon fill="none" stroke="#000000" points="231,-72.5 231,-102.5 396,-102.5 396,-72.5 231,-72.5"/>
<text text-anchor="start" x="238" y="-83.9" font-family="Arial" font-size="14.00" fill="#000000">created_at </text>
<text text-anchor="start" x="308.028" y="-83.9" font-family="Arial" font-size="14.00" fill="#666666">[datetime]</text>
<polygon fill="none" stroke="#000000" points="231,-42.5 231,-72.5 396,-72.5 396,-42.5 231,-42.5"/>
<text text-anchor="start" x="238" y="-53.9" font-family="Arial" font-size="14.00" fill="#000000">updated_at </text>
<text text-anchor="start" x="311.9326" y="-53.9" font-family="Arial" font-size="14.00" fill="#666666">[datetime]</text>
</g>
<!-- tags&#45;&gt;posts -->
<g id="edge1" class="edge">
<title>tags:post_id&#45;&gt;posts:id</title>
<path fill="none" stroke="#000000" d="M229.2768,-515.0794C176.0875,-487.7124 172.1566,-237.5 231,-237.5"/>
<polygon fill="#000000" stroke="#000000" points="229.2962,-515.0841 237.9129,-521.8667 234.1481,-516.2921 239,-517.5 239,-517.5 239,-517.5 234.1481,-516.2921 240.0871,-513.1333 229.2962,-515.0841 229.2962,-515.0841"/>
<text text-anchor="start" x="7.495" y="-527.5" font-family="Arial" font-size="10.00" fill="#000000">FOREIGN KEY (post_id) REFERENCES posts (id)</text>
</g>
</g>
</svg>
